<svg width="1398" height="493" viewBox="0 0 1398 493" fill="none" xmlns="http://www.w3.org/2000/svg">
<g clip-path="url(#clip0_10_325)">
<path d="M71.591 653.578L97.9747 601.355C124.471 549.517 177.07 444.496 247.94 401.854C318.811 359.212 407.392 377.03 488.748 370.184C569.936 362.762 643.899 330.677 717.58 297.632C791.262 264.587 865.225 232.501 941.915 209.725C1018.77 187.524 1098.36 174.632 1184.21 183.141C1269.9 191.074 1361.85 220.408 1407.63 234.403L1453.52 248.782L1415.14 260.027C1376.75 271.271 1299.98 293.76 1223.2 316.248C1146.43 338.737 1069.65 361.226 992.88 383.714C916.106 406.203 839.332 428.692 762.558 451.18C685.784 473.669 609.01 496.157 532.236 518.646C455.461 541.135 378.687 563.623 301.913 586.112C225.139 608.601 148.365 631.089 109.978 642.334L71.591 653.578Z" fill="#FFB703"/>
</g>
<defs>
<clipPath id="clip0_10_325">
<rect width="1440" height="320" fill="white" transform="translate(-74 404.796) rotate(-16.3264)"/>
</clipPath>
</defs>
</svg>
