<svg width="454" height="1024" viewBox="0 0 454 1024" fill="none" xmlns="http://www.w3.org/2000/svg">
<g clip-path="url(#clip0_10_323)">
<path d="M271.726 0.0210477L233.816 34.1733C196.473 68.3252 119.799 136.63 90 204.914C60.201 273.198 74.4359 341.462 120.347 409.713C165.405 477.963 242.14 546.2 272 614.457C301.86 682.714 287.686 750.991 241.836 819.282C196.838 887.573 120.164 955.878 82.8212 990.03L44.9104 1024.18L-0.543998 1024.2L-0.559198 990.067C-0.574398 955.932 -0.604798 887.661 -0.635198 819.39C-0.665597 751.12 -0.695997 682.849 -0.726397 614.578C-0.756797 546.308 -0.787197 478.037 -0.817597 409.766C-0.847997 341.496 -0.878397 273.225 -0.908797 204.954C-0.939196 136.684 -0.969596 68.4131 -0.984796 34.2778L-0.999996 0.142489L271.726 0.0210477Z" fill="#FFB703"/>
</g>
<defs>
<clipPath id="clip0_10_323">
<rect width="1024.06" height="454.544" fill="white" transform="translate(453.544 -0.059906) rotate(89.9745)"/>
</clipPath>
</defs>
</svg>
